<svg xmlns="http://www.w3.org/2000/svg" width="30" height="30.527" viewBox="0 0 30 30.527">
    <defs>
        <style>
            .cls-999{fill:#222}
        </style>
    </defs>
    <path id="패스_88" d="M39.056 21.911c.01-.457-.836-.865-1.64-1.042-.014-.143-.034-.284-.052-.426.826-.336 1.775-1.043 1.636-1.543-.13-.478-1.208-.616-2.073-.515q-.06-.2-.126-.4c.721-.465 1.436-1.222 1.244-1.666s-1.209-.438-2.036-.236a18.633 18.633 0 0 1-.1-.2c.615-.591 1.163-1.454.894-1.85s-1.218-.215-1.984.119l-.086-.114c.513-.7.921-1.708.569-2.056-.334-.33-1.251.029-1.94.51q-.091-.089-.185-.176c.308-.836.424-2.011-.037-2.248-.39-.2-1.085.328-1.592.942a4.61 4.61 0 0 0-.2-.128c.229-.85.245-1.977-.221-2.174-.428-.181-1.135.477-1.6 1.172-.1-.047-.2-.1-.308-.139.065-.82-.08-1.745-.519-1.868-.42-.118-.992.529-1.368 1.226-.071-.018-.143-.034-.215-.051.033-.839-.158-1.8-.616-1.9-.48-.108-1.1.767-1.42 1.575l-.14-.011c-.144-.838-.549-1.772-1.027-1.772s-.873.922-1.014 1.76c-.1.007-.2.013-.3.023-.357-.781-1.005-1.6-1.473-1.47-.432.118-.587 1.01-.538 1.819-.181.046-.361.1-.539.15-.465-.634-1.111-1.187-1.508-1.015-.381.165-.431.955-.306 1.7q-.2.091-.391.189c-.562-.5-1.25-.876-1.592-.644-.323.219-.255.929-.027 1.6-.109.076-.218.152-.325.231-.651-.388-1.406-.628-1.7-.333-.27.273-.078.938.265 1.549q-.215.209-.419.427c-.748-.183-1.566-.191-1.759.185-.159.309.141.81.577 1.257q-.148.208-.289.421c-.733-.108-1.491-.044-1.649.33-.142.337.237.849.744 1.276q-.145.3-.275.618c-.635.027-1.209.19-1.305.529-.091.322.269.734.755 1.078q-.07.255-.13.515c-.664.052-1.275.247-1.356.605-.085.379.441.845 1.063 1.181-.027.282-.043.566-.052.853-.686.177-1.312.5-1.32.893-.009.409.666.779 1.385.979q.031.3.075.593c-.761.363-1.53.987-1.407 1.442.12.439 1.038.591 1.856.535.052.169.11.335.168.5-.657.468-1.247 1.14-1.07 1.548s1.076.436 1.867.275q.075.141.153.281c-.564.583-1.027 1.362-.775 1.733s1.127.23 1.872-.072l.129.164c-.479.7-.835 1.625-.5 1.957s1.2-.008 1.877-.467l.222.2c-.289.83-.387 1.947.062 2.178.387.2 1.073-.319 1.579-.927l.2.13c-.224.848-.237 1.961.226 2.157.432.183 1.15-.492 1.611-1.2.1.042.2.08.3.12-.073.83.068 1.784.515 1.91s1.035-.577 1.409-1.3l.177.041c-.051.858.139 1.886.612 1.993s1.115-.785 1.429-1.6c.16.765.513 1.526.943 1.536.46.01.87-.846 1.045-1.655.141-.011.282-.023.422-.039.335.826 1.044 1.777 1.546 1.64.471-.129.613-1.178.52-2.035.143-.039.286-.078.427-.121.467.706 1.2 1.391 1.638 1.2s.437-1.139.257-1.949c.083-.04.163-.084.245-.125.588.588 1.4 1.089 1.786.829.367-.249.231-1.127-.071-1.871.058-.041.117-.082.174-.124.694.475 1.616.827 1.947.493.309-.312.015-1.134-.419-1.8.086-.086.169-.175.252-.263.817.263 1.859.336 2.08-.1.184-.359-.249-.977-.8-1.468.063-.089.126-.179.187-.269.817.179 1.79.159 1.971-.27.165-.39-.368-1.012-.989-1.468.066-.14.13-.28.191-.422.753.022 1.521-.134 1.633-.532.106-.377-.4-.876-1.014-1.246.03-.111.059-.221.087-.333.771-.01 1.565-.206 1.657-.619.1-.432-.6-.978-1.329-1.314.021-.218.037-.437.047-.658.793-.143 1.59-.503 1.6-.943zM21.643 11.559a.834.834 0 0 1 1 .823v3.478a.84.84 0 0 1-.58.794 5.875 5.875 0 0 0-3.652 3.574.838.838 0 0 1-.787.56h-3.5a.834.834 0 0 1-.821-1.007 10.91 10.91 0 0 1 8.34-8.222zm-8.351 13.067a1.046 1.046 0 0 1 1.025-1.268h3.047a1.031 1.031 0 0 1 .985.7 5.881 5.881 0 0 0 3.619 3.7 1.03 1.03 0 0 1 .671.977v3.063a1.045 1.045 0 0 1-1.281 1.022 10.913 10.913 0 0 1-8.066-8.194zm11.176.758a3.213 3.213 0 1 1 2.623-2.623 3.215 3.215 0 0 1-2.623 2.623zm1.279-8.743a.776.776 0 0 1-.538-.737v-3.595a.777.777 0 0 1 .925-.765 10.909 10.909 0 0 1 8.43 8.309.776.776 0 0 1-.763.935h-3.615a.774.774 0 0 1-.73-.52 5.877 5.877 0 0 0-3.709-3.628zm-.538 11.881a.765.765 0 0 1 .533-.726 5.879 5.879 0 0 0 3.8-3.886.766.766 0 0 1 .732-.552h3.6a.762.762 0 0 1 .754.893 10.909 10.909 0 0 1-8.522 8.643.761.761 0 0 1-.9-.752z" class="cls-999" data-name="패스 88" transform="translate(-9.056 -6.928)"/>
</svg>
