<svg xmlns="http://www.w3.org/2000/svg" width="69.436" height="69.44" viewBox="0 0 69.436 69.44">
    <defs>
        <style>
            .block{fill:#e11a1a}
        </style>
    </defs>
    <g id="noun_ban_1268803" transform="translate(-6.28 -6.285)">
        <path id="패스_566" d="M65.547 16.454a34.712 34.712 0 0 0-49.094 0 34.719 34.719 0 1 0 49.1 49.1 34.712 34.712 0 0 0 0-49.094zm-4.495 4.495a28.359 28.359 0 0 1 2.12 37.738L23.314 18.829a28.359 28.359 0 0 1 37.738 2.12zM20.94 61.061a28.359 28.359 0 0 1-2.12-37.738l39.866 39.85a28.359 28.359 0 0 1-37.738-2.12z" class="block" data-name="패스 566"/>
    </g>
</svg>
