<svg xmlns="http://www.w3.org/2000/svg" id="noun_Calendar_2080654" width="23.987" height="23.515" viewBox="0 0 23.987 23.515">
    <defs>
        <style>
            .calendar{fill:#222}
        </style>
    </defs>
    <g id="그룹_16" data-name="그룹 16">
        <path id="패스_569" d="M23.16 9.5H22.1l-.3 1.11a2.393 2.393 0 0 1-2.246 1.766 1.677 1.677 0 0 1-1.388-.656 1.8 1.8 0 0 1-.278-1.564l.177-.656h-3.407l-.3 1.11a2.423 2.423 0 0 1-2.271 1.766 1.711 1.711 0 0 1-1.387-.656 1.8 1.8 0 0 1-.278-1.564L10.6 9.5H9.486a4.115 4.115 0 0 0-3.81 3L2.547 24.033a2.73 2.73 0 0 0 .429 2.473 2.692 2.692 0 0 0 2.17 1.034h1.539v.681a3.263 3.263 0 0 0 3.255 3.255h13.22a3.263 3.263 0 0 0 3.255-3.255V12.755A3.263 3.263 0 0 0 23.16 9.5zM5.171 25.572a.735.735 0 0 1-.606-.252.775.775 0 0 1-.076-.757l2.574-9.638h15.694l-2.447 9.133a2.179 2.179 0 0 1-1.918 1.542H5.171zm19.276 2.649a1.292 1.292 0 0 1-1.287 1.287H9.965a1.292 1.292 0 0 1-1.287-1.287v-.681h9.714a4.115 4.115 0 0 0 3.81-3l2.246-8.351z" class="calendar" data-name="패스 569" transform="translate(-2.428 -7.961)"/>
        <path id="패스_570" d="M38.278 6.907a1.478 1.478 0 0 0 1.362-1.085l.353-1.337a.806.806 0 0 0-.781-1.085 1.478 1.478 0 0 0-1.362 1.085l-.35 1.337a.814.814 0 0 0 .778 1.085z" class="calendar" data-name="패스 570" transform="translate(-28.622 -3.4)"/>
        <path id="패스_571" d="M67.8 6.907a1.478 1.478 0 0 0 1.362-1.085l.353-1.337a.806.806 0 0 0-.778-1.085 1.478 1.478 0 0 0-1.362 1.085L67 5.822a.818.818 0 0 0 .8 1.085z" class="calendar" data-name="패스 571" transform="translate(-50.679 -3.4)"/>
        <path id="패스_572" d="M40.74 54.5h-2.346a.438.438 0 0 0-.378.278l-.454 1.716a.2.2 0 0 0 .2.278h2.346a.438.438 0 0 0 .378-.278l.454-1.716a.2.2 0 0 0-.2-.278z" class="calendar" data-name="패스 572" transform="translate(-28.687 -41.607)"/>
        <path id="패스_573" d="M24.34 54.5h-2.346a.438.438 0 0 0-.378.278l-.454 1.716a.2.2 0 0 0 .2.278h2.346a.438.438 0 0 0 .378-.278l.454-1.716a.2.2 0 0 0-.2-.278z" class="calendar" data-name="패스 573" transform="translate(-16.425 -41.607)"/>
        <path id="패스_574" d="M57.14 54.5h-2.346a.438.438 0 0 0-.378.278l-.454 1.716a.2.2 0 0 0 .2.278h2.346a.438.438 0 0 0 .378-.278l.454-1.716a.2.2 0 0 0-.2-.278z" class="calendar" data-name="패스 574" transform="translate(-40.949 -41.607)"/>
        <path id="패스_575" d="M44.54 40.2h-2.346a.438.438 0 0 0-.378.278l-.454 1.716a.2.2 0 0 0 .2.278h2.346a.438.438 0 0 0 .378-.278l.454-1.716a.2.2 0 0 0-.2-.278z" class="calendar" data-name="패스 575" transform="translate(-31.528 -30.915)"/>
        <path id="패스_576" d="M28.24 40.2h-2.346a.438.438 0 0 0-.378.278l-.454 1.716a.2.2 0 0 0 .2.278h2.346a.438.438 0 0 0 .378-.278l.454-1.716a.2.2 0 0 0-.2-.278z" class="calendar" data-name="패스 576" transform="translate(-19.341 -30.915)"/>
        <path id="패스_577" d="M58.056 42.571H60.4a.438.438 0 0 0 .378-.278l.454-1.716a.2.2 0 0 0-.2-.278h-2.345a.438.438 0 0 0-.378.278l-.454 1.716a.2.2 0 0 0 .201.278z" class="calendar" data-name="패스 577" transform="translate(-43.859 -30.99)"/>
    </g>
</svg>
