<svg xmlns="http://www.w3.org/2000/svg" id="crown-icon" width="34.076" height="22.761" viewBox="0 0 34.076 22.761">
    <defs>
        <style>
            .cls-989{fill:#ffd00d}
        </style>
    </defs>
    <path id="패스_260" d="M32.1 38.031a41.787 41.787 0 0 1-2.569-4.186 1.187 1.187 0 1 0-.395.053 17.889 17.889 0 0 1-1.3 5.294s2.135 2.408 4.264-1.161z" class="cls-989" data-name="패스 260" transform="translate(-19.194 -27.145)"/>
    <path id="패스_261" d="M65.168 39.193a17.9 17.9 0 0 1-1.3-5.294 1.179 1.179 0 1 0-.395-.053 41.864 41.864 0 0 1-2.568 4.186c2.134 3.568 4.263 1.161 4.263 1.161z" class="cls-989" data-name="패스 261" transform="translate(-39.741 -27.145)"/>
    <path id="패스_262" d="M37.44 24.331a1.634 1.634 0 0 0-.691 3.115c-1.648 1.747-5.827 5.947-7.911 5.947-3.673 0-5.718-6.987-6.467-10.215a1.635 1.635 0 1 0-.666 0c-.749 3.228-2.795 10.215-6.468 10.215-2.083 0-6.262-4.2-7.91-5.947a1.67 1.67 0 1 0-.4.128l5 15.129h20.222l5-15.129a1.634 1.634 0 1 0 .29-3.242z" class="cls-989" data-name="패스 262" transform="translate(-5 -19.942)"/>
</svg>
