<svg xmlns="http://www.w3.org/2000/svg" width="30" height="15.47" viewBox="0 0 30 15.47">
    <defs>
        <style>
            .limit{fill:#444}
        </style>
    </defs>
    <g id="상벌점_아이콘" data-name="상벌점 아이콘" transform="translate(-10 -129.137)">
        <path id="패스_256" d="M34.956 132.92a1.828 1.828 0 0 0-2.949-2.048A15 15 0 0 0 10 144.138a.366.366 0 1 0 .732 0 14.273 14.273 0 0 1 20.862-12.656 1.828 1.828 0 0 0 2.936 2.037 14.254 14.254 0 0 1 4.739 10.62.366.366 0 1 0 .732 0 14.984 14.984 0 0 0-5.045-11.219z" class="limit" data-name="패스 256"/>
        <path id="패스_257" d="M222.432 236.949l-5 3.713a2.561 2.561 0 1 0-.181 5.115h.133a2.56 2.56 0 0 0 2.393-2.994l3.186-5.35a.366.366 0 0 0-.533-.481zm-5.225 6.754a.512.512 0 1 1 .512-.512.512.512 0 0 1-.513.509z" class="limit" data-name="패스 257" transform="translate(-192.207 -101.17)"/>
    </g>
</svg>
