<svg xmlns="http://www.w3.org/2000/svg" width="21.429" height="20" viewBox="0 0 21.429 20">
    <defs>
        <style>
            .list{fill:#fff}
        </style>
    </defs>
    <g id="noun_List_1015747" transform="translate(-5 -8)">
        <path id="패스_567" d="M5 25.857A2.143 2.143 0 1 1 7.143 28 2.143 2.143 0 0 1 5 25.857zm2.143-13.571A2.143 2.143 0 1 0 5 10.143a2.143 2.143 0 0 0 2.143 2.143zm0 7.857A2.143 2.143 0 1 0 5 18a2.143 2.143 0 0 0 2.143 2.143zm7.143-8.571H25a1.429 1.429 0 0 0 0-2.857H14.286a1.429 1.429 0 0 0 0 2.857zm0 7.857H25a1.429 1.429 0 1 0 0-2.857H14.286a1.429 1.429 0 0 0 0 2.857zm0 7.857H25a1.429 1.429 0 1 0 0-2.857H14.286a1.429 1.429 0 0 0 0 2.857z" class="list" data-name="패스 567"/>
    </g>
</svg>
