<svg xmlns="http://www.w3.org/2000/svg" width="314" height="191.581" viewBox="0 0 314 191.581">
    <defs>
        <style>
            .cls-997,.cls-996{fill:#0f4c81}.cls-997,.cls-995{opacity:.1}.cls-994{opacity:.2}.cls-993{fill:#3f3d56}.cls-992{fill:#fff}.cls-991{opacity:.5}.cls-990{fill:none;stroke:#3f3d56;stroke-linecap:round;stroke-miterlimit:10;opacity:.7}.cls-9{fill:url(#linear-gradient)}.cls-9970{fill:#fbbebe}.cls-9971{fill:#f86d70}.cls-9972{fill:#434175}
        </style>
        <linearGradient id="linear-gradient" x1="9.046" x2="9.046" y1="1" gradientUnits="objectBoundingBox">
            <stop offset="0" stop-color="gray" stop-opacity=".251" />
            <stop offset=".54" stop-color="gray" stop-opacity=".122" />
            <stop offset="1" stop-color="gray" stop-opacity=".102" />
        </linearGradient>
    </defs>
    <g id="undraw_personal_settings_kihd">
        <path id="패스_184" d="M342 228.835a49.559 49.559 0 0 1-7.17 25.765c0 9.5-4.43 18.115-11.616 24.393a39.727 39.727 0 0 1-5.786 4.194c-.082.052-.167.1-.253.151l-.464.274-.145.085a45.181 45.181 0 0 1-22.26 5.709H87.608q-2.47 0-4.9-.2a57.955 57.955 0 0 1-16.759-3.881q-1.57-.62-3.08-1.334-.719-.338-1.425-.694c-.294-.148-.587-.3-.878-.456a51.441 51.441 0 0 1-9.458-6.42c-9.332-8.023-15.118-19.106-15.118-31.348A49.543 49.543 0 0 1 28 218c0-27.211 21.749-49.271 48.582-49.271.823 0 1.647.025 2.47.069a2.508 2.508 0 0 1 .351.016 83.7 83.7 0 0 1 17.841-21.03c19.828-16.99 48.807-27.7 81.088-27.7 27.124 0 51.917 7.562 70.908 20.056a47.808 47.808 0 0 1 23.591-6.189c26.827 0 48.582 22.06 48.582 49.271a50.754 50.754 0 0 1-.274 5.155A49.406 49.406 0 0 1 342 228.835z" class="cls-997" data-name="패스 184" transform="translate(-28 -114.843)" />
        <g id="그룹_1" class="cls-994" data-name="그룹 1" transform="translate(21.804 96.269)">
            <path id="패스_185" d="M152.07 710.376a3.269 3.269 0 0 1-.027.371q-1.57-.62-3.08-1.334a2.5 2.5 0 0 1-1.425-.694c-.294-.148-.587-.3-.878-.456a3.755 3.755 0 0 1 .222-.4 2.553 2.553 0 0 1 4.647.143 4.63 4.63 0 0 1 .541 2.37z" class="cls-993" data-name="패스 185" transform="translate(-135.895 -636.527)" />
            <path id="패스_186" d="M151.377 693.256a4.633 4.633 0 0 1-.689 2.328 2.763 2.763 0 0 1-2.371 1.416l-.195-.014a2.5 2.5 0 0 1-1.425-.694 3.44 3.44 0 0 1-.656-.856 4.817 4.817 0 0 1 .148-4.7 2.553 2.553 0 0 1 4.647.143 4.63 4.63 0 0 1 .541 2.377z" class="cls-993" data-name="패스 186" transform="translate(-135.054 -624.106)" />
            <ellipse id="타원_4" cx="3.845" cy="2.937" class="cls-993" data-name="타원 4" rx="3.845" ry="2.937" transform="rotate(-88.19 40.392 28.65)" />
            <ellipse id="타원_5" cx="3.845" cy="2.937" class="cls-993" data-name="타원 5" rx="3.845" ry="2.937" transform="rotate(-88.19 38.04 26.225)" />
            <ellipse id="타원_6" cx="3.845" cy="2.937" class="cls-993" data-name="타원 6" rx="3.845" ry="2.937" transform="rotate(-88.282 35.5 23.645)" />
            <path id="패스_187" d="M111.291 474.193a13.632 13.632 0 0 1-1.043-1.647l7.752-1.024-8.35-.2a14.1 14.1 0 0 1 .085-11.155l11.012 6.162-10.087-7.919a14.075 14.075 0 1 1 22.74 16.469 14.03 14.03 0 0 1 1.523 2.616l-10.18 4.888 10.8-3.247a14.092 14.092 0 0 1-2.7 13.15 14.075 14.075 0 1 1-22.112-.7 14.075 14.075 0 0 1 .549-17.4z" class="cls-996" data-name="패스 187" transform="translate(-107.44 -451.737)" />
            <path id="패스_188" d="M136.139 567.525a14.015 14.015 0 0 1-3.294 8.6 14.075 14.075 0 1 1-22.112-.7c-1.802-2.447 25.456-9.481 25.406-7.9z" class="cls-995" data-name="패스 188" transform="translate(-107.44 -535.578)" />
        </g>
        <path id="패스_189" d="M425.895 226.053v131.523a5.053 5.053 0 0 1-5.053 5.053H219.053a4.976 4.976 0 0 1-1.394-.2 5.045 5.045 0 0 1-3.659-4.853V242.014a2.508 2.508 0 0 1 .351.016A83.7 83.7 0 0 1 232.192 221h188.65a5.053 5.053 0 0 1 5.053 5.053z" class="cls-992" data-name="패스 189" transform="translate(-162.948 -188.063)" />
        <rect id="사각형_14" width="37.831" height="9.87" class="cls-993" data-name="사각형 14" rx="4.935" transform="translate(195.473 50.018)" />
        <rect id="사각형_15" width="32.899" height="6.568" class="cls-995" data-name="사각형 15" rx="3.284" transform="translate(197.938 51.667)" />
        <rect id="사각형_16" width="11.879" height="5.849" class="cls-996" data-name="사각형 16" rx="2.925" transform="translate(218.133 52.027)" />
        <circle id="타원_7" cx="1.828" cy="1.828" r="1.828" class="cls-992" data-name="타원 7" transform="translate(222.155 53.125)" />
        <rect id="사각형_17" width="37.831" height="9.87" class="cls-993" data-name="사각형 17" rx="4.935" transform="translate(195.473 115.082)" />
        <rect id="사각형_18" width="32.899" height="6.568" class="cls-995" data-name="사각형 18" rx="3.284" transform="translate(197.938 116.732)" />
        <rect id="사각형_19" width="11.879" height="5.849" class="cls-996" data-name="사각형 19" rx="2.925" transform="translate(218.133 117.091)" />
        <circle id="타원_8" cx="1.828" cy="1.828" r="1.828" class="cls-992" data-name="타원 8" transform="translate(222.155 118.189)" />
        <rect id="사각형_20" width="37.831" height="9.87" class="cls-993" data-name="사각형 20" rx="4.935" transform="translate(195.473 147.613)" />
        <rect id="사각형_21" width="32.899" height="6.568" class="cls-995" data-name="사각형 21" rx="3.284" transform="translate(197.938 149.265)" />
        <rect id="사각형_22" width="11.879" height="5.849" class="cls-996" data-name="사각형 22" rx="2.925" transform="translate(218.133 149.625)" />
        <circle id="타원_9" cx="1.828" cy="1.828" r="1.828" class="cls-992" data-name="타원 9" transform="translate(222.155 150.72)" />
        <rect id="사각형_23" width="22.114" height="5.849" class="cls-996" data-name="사각형 23" rx="2.925" transform="translate(80.695 43.804)" />
        <rect id="사각형_24" width="61.408" height="5.849" class="cls-996" data-name="사각형 24" rx="2.925" transform="translate(80.695 52.027)" />
        <rect id="사각형_25" width="61.408" height="5.849" class="cls-996" data-name="사각형 25" rx="2.925" transform="translate(80.695 60.253)" />
        <g id="그룹_2" class="cls-991" data-name="그룹 2" transform="translate(80.695 76.334)">
            <rect id="사각형_26" width="22.114" height="5.849" class="cls-996" data-name="사각형 26" rx="2.925" />
            <rect id="사각형_27" width="45.837" height="5.849" class="cls-996" data-name="사각형 27" rx="2.925" transform="translate(0 8.226)" />
            <rect id="사각형_28" width="61.408" height="5.849" class="cls-996" data-name="사각형 28" rx="2.925" transform="translate(0 16.449)" />
        </g>
        <rect id="사각형_29" width="22.114" height="5.849" class="cls-996" data-name="사각형 29" rx="2.925" transform="translate(80.695 108.868)" />
        <rect id="사각형_30" width="61.408" height="5.849" class="cls-996" data-name="사각형 30" rx="2.925" transform="translate(80.695 117.091)" />
        <rect id="사각형_31" width="38.152" height="5.849" class="cls-996" data-name="사각형 31" rx="2.925" transform="translate(80.695 125.317)" />
        <rect id="사각형_32" width="22.114" height="5.849" class="cls-996" data-name="사각형 32" rx="2.925" transform="translate(80.695 141.399)" />
        <rect id="사각형_33" width="61.408" height="5.849" class="cls-996" data-name="사각형 33" rx="2.925" transform="translate(80.695 149.625)" />
        <rect id="사각형_34" width="49.406" height="5.849" class="cls-996" data-name="사각형 34" rx="2.925" transform="translate(80.695 157.848)" />
        <path id="선_1" d="M0 0h178.958" class="cls-990" data-name="선 1" transform="translate(71.363 71.361)" />
        <path id="선_2" d="M0 0h178.958" class="cls-990" data-name="선 2" transform="translate(71.363 104.435)" />
        <path id="선_3" d="M0 0h178.958" class="cls-990" data-name="선 3" transform="translate(71.363 137.509)" />
        <path id="선_4" d="M0 0h178.958" class="cls-990" data-name="선 4" transform="translate(71.363 171.407)" />
        <ellipse id="타원_10" cx="40.535" cy="2.882" class="cls-997" data-name="타원 10" rx="40.535" ry="2.882" transform="translate(177.673 185.817)" />
        <circle id="타원_11" cx="5.937" cy="5.937" r="5.937" class="cls-997" data-name="타원 11" transform="translate(13.419 32.814)" />
        <circle id="타원_12" cx="5.937" cy="5.937" r="5.937" class="cls-997" data-name="타원 12" transform="translate(38.163)" />
        <circle id="타원_13" cx="9.95" cy="9.95" r="9.95" class="cls-997" data-name="타원 13" transform="translate(32.138 18.53)" />
        <rect id="사각형_35" width="37.831" height="9.87" class="cls-993" data-name="사각형 35" rx="4.935" transform="translate(195.473 82.548)" />
        <rect id="사각형_36" width="32.899" height="6.568" class="cls-995" data-name="사각형 36" rx="3.284" transform="translate(197.938 84.201)" />
        <path id="패스_190" d="M728.69 498.918c.431-.063.862-.151 1.285-.25a4.013 4.013 0 0 1-.362 1.219 5.317 5.317 0 0 1-2 1.765.618.618 0 0 0-.78-.052c-.909.549-1.633 1.323-2.6 1.8-.338.165-.689.3-1.018.48a5.49 5.49 0 0 0-1.921 1.984 1.363 1.363 0 0 0-.228 1.408 1.219 1.219 0 0 0 .39.349 2.218 2.218 0 0 0 1.337.4c.274-.025.549-.129.848-.176.376-.066.76-.033 1.139-.066a6.66 6.66 0 0 0 1.6-.414l1.886-.659a10.883 10.883 0 0 0 1.551-.637c.3-.162.582-.351.887-.5a7.136 7.136 0 0 1 1.059-.373l1.07-.313a1.043 1.043 0 0 1 .483-.063c.148.027.274.121.425.159a1.285 1.285 0 0 0 .686-.066l1.241-.351a2.34 2.34 0 0 0 .738-.307 2.25 2.25 0 0 0 .667-1.9 14.434 14.434 0 0 0-.357-3.151.98.98 0 0 0-.4.3 5.875 5.875 0 0 0-.409-.513 6.123 6.123 0 0 1-1.238-2.286 4.024 4.024 0 0 0 1.1-1.241 27.067 27.067 0 0 0-2.662-7.246c-.436-.719-.936-1.394-1.372-2.1-1.3-2.059-1.565-4.666-3.049-6.587a1.142 1.142 0 0 1 0-1.339c.17-.225.445-.436.392-.716-.038-.2-.247-.384-.167-.571.038-.091.132-.14.2-.206.253-.236.22-.634.244-.98a4.77 4.77 0 0 1 1.073-2.35 1.444 1.444 0 0 1 .4-.428c.135-.082.294-.121.428-.2.472-.3.439-.994.664-1.51.3-.681 1.043-1.024 1.532-1.576.623-.7.782-1.68 1.438-2.292a1.678 1.678 0 0 1 .217-.176 11.045 11.045 0 0 0-.387 3.2c-.063 3.714.859 7.556.428 11.253a7.763 7.763 0 0 0 3.98 7.307 19.021 19.021 0 0 0 3.1 1.315c1.586.568 3.167 1.153 4.724 1.806q1.647.692 3.25 1.485a40.433 40.433 0 0 1 3.843 2.144 14.876 14.876 0 0 1 4.139 3.436 3.277 3.277 0 0 0 1.828-.672c.417.329.922.579 1.315.944a3.969 3.969 0 0 1 1.043 2.048h-.165l.055 1.1a.467.467 0 0 1-.041.274.5.5 0 0 1-.148.134l-.845.574c-.615.414-1.293.939-1.326 1.683a.856.856 0 0 0 .184.6 1.3 1.3 0 0 0 .752.34 13.252 13.252 0 0 0 4.469.412 2.939 2.939 0 0 0 1.9-.878 3.766 3.766 0 0 0 .664-1.823c.184-1.1.338-2.221.458-3.335a7.374 7.374 0 0 1 .456-2.215.274.274 0 0 1 .118-.148c.063-.027.137 0 .2-.027s.11-.129.132-.211a13.1 13.1 0 0 0 .393-3.316 2.235 2.235 0 0 0-.129-.854 1.724 1.724 0 0 0-1.175-.906 9.354 9.354 0 0 0-1.518-.181 7.537 7.537 0 0 1-1.26-.231 1.153 1.153 0 0 0-.524-.069.368.368 0 0 0-.318.365.469.469 0 0 0 .066.178l-.428-.085c-.346-.063-.823-.214-1.342-.34a2.4 2.4 0 0 1 .016-.274.519.519 0 0 0-.291-.472l-7.252-3.876-1.356-.725c-2.97-1.589-6.038-3.058-9.016-4.647-.2.06-.362-.167-.42-.371s-.1-.445-.288-.535c-.093-.044-.217-.041-.274-.121a.327.327 0 0 1-.052-.244c.1-1.446 1.131-2.78.925-4.213a5.328 5.328 0 0 1-.274-1.817 8.6 8.6 0 0 1 .549-1.147c.357-.884 0-1.946.39-2.811a6.508 6.508 0 0 0 .524-1.79 12.294 12.294 0 0 1 1.1-3.552 6.408 6.408 0 0 1 1.021-1.556c.217-.236.461-.447.67-.692a5.781 5.781 0 0 0 1.043-2.745 13.129 13.129 0 0 0 .143-5.33 7.619 7.619 0 0 1-.338-1.792c0-.73.294-1.567-.06-2.152a1.894 1.894 0 0 0 .683-1.172 1.515 1.515 0 0 1 .1-.486 1.411 1.411 0 0 1 .458-.412 1.9 1.9 0 0 0 .708-1.886c.376.17.771-.211.95-.587s.313-.823.694-.994a5.716 5.716 0 0 1 .823-.115c.436-.113.7-.549 1.01-.87a7.783 7.783 0 0 1 2.333-1.438 26.442 26.442 0 0 0 6.354-5.122 21.514 21.514 0 0 0 2.745-3.091c.217-.321.414-.653.6-.994l.049-.025.016.06c.03.121.066.242.1.36.088.274.187.568.274.848a6.36 6.36 0 0 0 1.221 2.325 2.877 2.877 0 0 0 .626.486 4.2 4.2 0 0 0 1.611.483c.214.027.431.044.648.055s.434.019.648.025l4.441.118c-1.526-2.212-1.647-5.089-1.545-7.781.255-6.917 1.6-13.9.351-20.7a5.306 5.306 0 0 0-.854-2.308 4.741 4.741 0 0 0-2.794-1.526 16.781 16.781 0 0 1-3.135-.8 13.214 13.214 0 0 0-2.47-1.177 5.439 5.439 0 0 0-1.976.033q-1.2.178-2.391.423l-.192.041h.008l-.132.03h-.036l-.118.027h-.044l-.11.03-.049.014-.1.033-.058.019-.093.03-.06.025-.088.033-.066.027-.08.036-.066.033-.074.036-.066.038-.069.038-.066.044-.063.041-.066.047-.055.044-.063.055-.052.047a.656.656 0 0 0-.06.063l-.047.047a.83.83 0 0 0-.06.077c0 .014-.025.027-.036.044s-.049.071-.074.113v.016a1.668 1.668 0 0 0-.151.327c-.019.058-.038.115-.052.173a2.616 2.616 0 0 0-.06.357.831.831 0 0 1-.014.184v.365a5.386 5.386 0 0 0 .069.615 6.689 6.689 0 0 0-.318 11.317 3.012 3.012 0 0 1 .022.327v.071a9.06 9.06 0 0 1-.121 1.158 16.1 16.1 0 0 0-3.294-.294c-.659 0-1.323.06-1.987.113a29.955 29.955 0 0 1-1.987-2.69l-1.466-2.149a20.475 20.475 0 0 1-1.372-2.2c-.36-.7-.64-1.438-1.04-2.113-.823-1.392-2.168-2.575-2.336-4.186l-.387.08c-.211-.346-.478-.711-.576-.911a17.989 17.989 0 0 1-1.219-3.568 5.485 5.485 0 0 0-.585-1.85 4.169 4.169 0 0 0-.854-.906 5.645 5.645 0 0 0-1.828-1.153 2.363 2.363 0 0 0-1.869.11 2.742 2.742 0 0 0-.274-.11 2.264 2.264 0 0 0-2.075.242 2.789 2.789 0 0 0-.911 1.921 4.743 4.743 0 0 0 .489 2.915 11.538 11.538 0 0 0 2.344 2.426 9.5 9.5 0 0 1 1.474 1.833 20.082 20.082 0 0 1-.113 4.449c-.1.631-.274 1.252-.324 1.888-.2 2.3 1 4.6.568 6.862a1.674 1.674 0 0 0 .777 1.776 8.562 8.562 0 0 0 2.009.549c1.326.34 2.47 1.188 3.81 1.5.618.148 1.26.176 1.875.34l.1.03a4.466 4.466 0 0 0-.985 1.872c-.275 1.153-.016 2.385-.291 3.538a7.887 7.887 0 0 1-1.348 2.583l-3.222 4.666a28.583 28.583 0 0 1-2.379 3.106c-1.479 1.617-4.032 2.9-4.784 4.842-.016-.047-.038-.093-.055-.14-1.065.782-1.463 2.24-2.311 3.253-.414.491-.925.889-1.372 1.345a15.523 15.523 0 0 0-1.518 1.886 33.472 33.472 0 0 0-3.436 5.473c-.472 1.021-.837 2.083-1.213 3.14-1.477 4.164-3.887 8.113-4.888 12.42a23.4 23.4 0 0 0-.98 3.077 5.951 5.951 0 0 0 .961 3.263c.823 1.548 1.74 3.052 2.47 4.644.431.928.8 1.886 1.284 2.791.524.988 1.167 1.9 1.716 2.879a36.1 36.1 0 0 1 2.816 7.99zm18.159-78.651l-.132-.066a4.548 4.548 0 0 1-1.331-.881 10.3 10.3 0 0 1-2.061-4.864c-.044-.2-.082-.4-.118-.607a29.193 29.193 0 0 1 3.642 6.423z" class="cls-9" data-name="패스 190" transform="translate(-529.649 -317.49)" />
        <path id="패스_191" d="M782.989 404.755a5.386 5.386 0 0 0-.582-1.836 4.16 4.16 0 0 0-.856-.9 5.693 5.693 0 0 0-1.833-1.145 2.289 2.289 0 0 0-2.075.239 2.771 2.771 0 0 0-.914 1.921 4.686 4.686 0 0 0 .489 2.9 11.906 11.906 0 0 0 2.35 2.41 9.439 9.439 0 0 1 1.532 1.921 5.547 5.547 0 0 0 .7 1.021 1.328 1.328 0 0 0 1.1.442 1.921 1.921 0 0 0 .9-.53c.335-.294 1.235-.823 1.263-1.282.022-.376-.681-1.227-.854-1.581a17.954 17.954 0 0 1-1.22-3.58z" class="cls-9970" data-name="패스 191" transform="translate(-571.182 -318.46)" />
        <path id="패스_192" d="M782.989 404.755a5.386 5.386 0 0 0-.582-1.836 4.16 4.16 0 0 0-.856-.9 5.693 5.693 0 0 0-1.833-1.145 2.289 2.289 0 0 0-2.075.239 2.771 2.771 0 0 0-.914 1.921 4.686 4.686 0 0 0 .489 2.9 11.906 11.906 0 0 0 2.35 2.41 9.439 9.439 0 0 1 1.532 1.921 5.547 5.547 0 0 0 .7 1.021 1.328 1.328 0 0 0 1.1.442 1.921 1.921 0 0 0 .9-.53c.335-.294 1.235-.823 1.263-1.282.022-.376-.681-1.227-.854-1.581a17.954 17.954 0 0 1-1.22-3.58z" class="cls-995" data-name="패스 192" transform="translate(-571.182 -318.46)" />
        <path id="패스_193" d="M812.284 446.789a16.162 16.162 0 0 0-4.441-.549c-2.5.036-5.075.642-7.458-.126a13.016 13.016 0 0 1-1.784-.76 4.549 4.549 0 0 1-1.334-.876 10.154 10.154 0 0 1-2.064-4.831 32.233 32.233 0 0 1-.563-5.141 3.935 3.935 0 0 1-1.949.513 1.432 1.432 0 0 1-1.372-1.26 20.847 20.847 0 0 1-.091 4.79c-.1.626-.274 1.243-.321 1.875-.2 2.286 1 4.57.568 6.823a1.647 1.647 0 0 0 .777 1.762 8.721 8.721 0 0 0 2.012.549c1.326.338 2.47 1.18 3.815 1.5.618.146 1.263.173 1.877.338.876.233 1.674.736 2.569.892.67.121 1.372.038 2.039.1.59.049 1.167.2 1.759.22a5.07 5.07 0 0 0 3.777-1.869 16.38 16.38 0 0 0 2.184-3.95z" class="cls-9971" data-name="패스 193" transform="translate(-581.492 -342.426)" />
        <path id="패스_194" d="M812.284 446.789a16.162 16.162 0 0 0-4.441-.549c-2.5.036-5.075.642-7.458-.126a13.016 13.016 0 0 1-1.784-.76 4.549 4.549 0 0 1-1.334-.876 10.154 10.154 0 0 1-2.064-4.831 32.233 32.233 0 0 1-.563-5.141 3.935 3.935 0 0 1-1.949.513 1.432 1.432 0 0 1-1.372-1.26 20.847 20.847 0 0 1-.091 4.79c-.1.626-.274 1.243-.321 1.875-.2 2.286 1 4.57.568 6.823a1.647 1.647 0 0 0 .777 1.762 8.721 8.721 0 0 0 2.012.549c1.326.338 2.47 1.18 3.815 1.5.618.146 1.263.173 1.877.338.876.233 1.674.736 2.569.892.67.121 1.372.038 2.039.1.59.049 1.167.2 1.759.22a5.07 5.07 0 0 0 3.777-1.869 16.38 16.38 0 0 0 2.184-3.95z" class="cls-995" data-name="패스 194" transform="translate(-581.492 -342.426)" />
        <path id="패스_195" d="M869.716 737.252a3.756 3.756 0 0 1 1.282.4 3.019 3.019 0 0 1 1.114 1.5 13.054 13.054 0 0 1 .749 4.7 10.112 10.112 0 0 1-.483 3.807 2.423 2.423 0 0 1-.634 1 2.286 2.286 0 0 1-.873.423 2.339 2.339 0 0 1-2.048-.253 3.262 3.262 0 0 1-.914-2.135 4.945 4.945 0 0 0-1.216-2.9c-.582-.549-1.416-.823-1.839-1.488a3.175 3.175 0 0 1 .082-2.731c.274-.771.689-2.333 1.5-2.728s2.443.253 3.28.405z" class="cls-9970" data-name="패스 195" transform="translate(-634.955 -562.227)" />
        <path id="패스_196" d="M751.555 748.471a6.079 6.079 0 0 0 1.257 2.336c.357.412.8.911.618 1.422a1.323 1.323 0 0 1-.338.453c-2.651 2.591-6.36 3.843-10.038 4.315a.354.354 0 0 1-.178 0c-.107-.047-.134-.184-.145-.3a3.708 3.708 0 0 1 0-1.156 3.476 3.476 0 0 1 1.737-2.028 5.4 5.4 0 0 0 2.042-1.784c.535-1 .31-2.314.947-3.255a3.4 3.4 0 0 1 2.391-1.235c.316-.049.988-.4 1.257-.236s.356 1.153.45 1.468z" class="cls-9970" data-name="패스 196" transform="translate(-546.522 -569.659)" />
        <path id="패스_197" d="M871.9 737.357a.365.365 0 0 1 .318-.362 1.193 1.193 0 0 1 .524.066 7.275 7.275 0 0 0 1.26.233 9.344 9.344 0 0 1 1.521.178 1.721 1.721 0 0 1 1.177.9 2.228 2.228 0 0 1 .129.851 12.921 12.921 0 0 1-.393 3.294c-.022.082-.055.178-.134.209s-.137 0-.2.03a.247.247 0 0 0-.118.148 7.25 7.25 0 0 0-.458 2.2 59.392 59.392 0 0 1-.458 3.31 3.637 3.637 0 0 1-.664 1.812 2.946 2.946 0 0 1-1.9.873 13.424 13.424 0 0 1-4.474-.409 1.309 1.309 0 0 1-.755-.338.848.848 0 0 1-.184-.6c.033-.738.714-1.26 1.326-1.672l.848-.568a.44.44 0 0 0 .148-.135.458.458 0 0 0 .041-.274l-.055-1.1a3.11 3.11 0 0 1 2.709 1.685c.115.233.228.505.469.6a.62.62 0 0 0 .738-.447 1.9 1.9 0 0 0-.025-.952c-.5-2.654-.379-5.383-.681-8.064a1.82 1.82 0 0 0-.275-.851c-.134-.191-.407-.374-.434-.617z" class="cls-9971" data-name="패스 197" transform="translate(-636.774 -562.426)" />
        <rect id="사각형_37" width="11.879" height="5.849" class="cls-996" data-name="사각형 37" rx="2.925" transform="rotate(180 105.32 45.205)" />
        <circle id="타원_14" cx="1.828" cy="1.828" r="1.828" class="cls-992" data-name="타원 14" transform="translate(202.963 85.655)" />
        <path id="패스_198" d="M731.875 765.6c-.124.206-.318.365-.434.576a.494.494 0 0 0 .093.645.637.637 0 0 0 .393.038 13.205 13.205 0 0 0 7.136-3.233 5 5 0 0 0 .876-.958c.233-.354.431-.788.823-.936a14.249 14.249 0 0 1 .368 3.143 2.238 2.238 0 0 1-.667 1.894 2.369 2.369 0 0 1-.741.3l-1.241.351a1.32 1.32 0 0 1-.689.066c-.146-.038-.274-.132-.425-.159a1.043 1.043 0 0 0-.483.063l-1.073.313a6.827 6.827 0 0 0-1.059.371c-.307.146-.59.332-.889.494a10.649 10.649 0 0 1-1.554.631l-1.886.656a6.837 6.837 0 0 1-1.606.412c-.379.033-.766 0-1.142.063a7.743 7.743 0 0 1-.851.176 2.226 2.226 0 0 1-1.337-.4 1.243 1.243 0 0 1-.39-.346c-.274-.42-.036-.974.228-1.4a5.534 5.534 0 0 1 1.921-1.971c.329-.181.683-.313 1.021-.478.963-.467 1.691-1.246 2.6-1.779.86-.497 1.411.801 1.008 1.468z" class="cls-9971" data-name="패스 198" transform="translate(-533.674 -580.376)" />
        <path id="패스_199" d="M846.69 475.217a7.841 7.841 0 0 0 3.338 1.3 13.584 13.584 0 0 0 1.888.1 47.992 47.992 0 0 0 7.858-.656 9.73 9.73 0 0 1-2.47-3.843 6.342 6.342 0 0 1-.121-2.407 18.113 18.113 0 0 1 .736-3.019 21.31 21.31 0 0 1-3.321-.085c-.629-.066-2.171-.637-2.717-.2s-.126 1.831-.118 2.487a.633.633 0 0 1 0 .071 7.942 7.942 0 0 1-.634 2.9 5.474 5.474 0 0 1-4.439 3.352z" class="cls-9970" data-name="패스 199" transform="translate(-621.98 -365.992)" />
        <path id="패스_200" d="M864.752 468.848a6.6 6.6 0 0 0 5.421.823 18.114 18.114 0 0 1 .736-3.019 21.306 21.306 0 0 1-3.321-.085c-.629-.066-2.171-.637-2.717-.2s-.127 1.825-.119 2.481z" class="cls-995" data-name="패스 200" transform="translate(-634.967 -365.963)" />
        <circle id="타원_15" cx="6.618" cy="6.618" r="6.618" class="cls-9970" data-name="타원 15" transform="translate(226.79 90.42)" />
        <path id="패스_201" d="M776.09 512.712a3.082 3.082 0 0 0 1.493 2.654 5.952 5.952 0 0 0 1.619.571 31.8 31.8 0 0 0 9.236 1.139 5.076 5.076 0 0 0 1.96-.412 2.1 2.1 0 0 0 1.21-1.512 1.423 1.423 0 0 1 .093-.48 1.4 1.4 0 0 1 .458-.409 1.877 1.877 0 0 0 .711-1.872c.376.17.771-.211.95-.585s.316-.823.694-.985a5.724 5.724 0 0 1 .823-.115c.436-.112.7-.549 1.01-.865a7.921 7.921 0 0 1 2.336-1.43 26.426 26.426 0 0 0 6.368-5.086 21.345 21.345 0 0 0 2.745-3.069 11.322 11.322 0 0 0 .6-.988 27.957 27.957 0 0 0 1.523-3.489 4.023 4.023 0 0 0 .4-2 .9.9 0 0 0-.036-.184 3.842 3.842 0 0 0-.6-1.213 5.078 5.078 0 0 0-2.712-2.229 7.494 7.494 0 0 0-3.489.313 8.737 8.737 0 0 1-1.183.181 11.114 11.114 0 0 1-3.683-.579l-1.312-.362c-.656-.181-.985-.974-1.647-1.114a2.23 2.23 0 0 0-.892.047 12.3 12.3 0 0 0-3.9 1.274 5.85 5.85 0 0 0-.758.516 4.8 4.8 0 0 0-1.762 2.6c-.274 1.145-.016 2.369-.291 3.513a7.824 7.824 0 0 1-1.348 2.564l-3.233 4.63a28.58 28.58 0 0 1-2.377 3.1c-1.737 1.888-4.959 3.31-5.006 5.876z" class="cls-9971" data-name="패스 201" transform="translate(-570.758 -382.191)" />
        <path id="패스_202" d="M790.839 404.755a5.388 5.388 0 0 0-.582-1.836 4.16 4.16 0 0 0-.856-.9 5.694 5.694 0 0 0-1.833-1.145 2.289 2.289 0 0 0-2.075.239 2.771 2.771 0 0 0-.914 1.921 4.685 4.685 0 0 0 .489 2.9 11.552 11.552 0 0 0 2.349 2.41 9.441 9.441 0 0 1 1.532 1.921 5.543 5.543 0 0 0 .7 1.021 1.328 1.328 0 0 0 1.1.442 1.921 1.921 0 0 0 .9-.53c.335-.294 1.235-.823 1.263-1.282.022-.376-.681-1.227-.854-1.581a17.95 17.95 0 0 1-1.219-3.58z" class="cls-9970" data-name="패스 202" transform="translate(-576.877 -318.46)" />
        <path id="패스_203" d="M720.237 605.785c.823 1.537 1.74 3.019 2.484 4.611.431.925.8 1.875 1.285 2.775.524.98 1.169 1.891 1.718 2.857a33.163 33.163 0 0 1 2.86 7.913 15.75 15.75 0 0 0 5.632-1.982 3.544 3.544 0 0 0 .338-.217 3.984 3.984 0 0 0 1.136-1.254 26.861 26.861 0 0 0-2.665-7.2c-.436-.714-.936-1.372-1.372-2.089-1.3-2.045-1.567-4.622-3.052-6.535a1.12 1.12 0 0 1 0-1.328c.17-.222.445-.434.393-.711-.038-.2-.247-.381-.167-.568.038-.091.132-.14.2-.206.253-.231.22-.629.244-.969a4.75 4.75 0 0 1 1.076-2.336 1.466 1.466 0 0 1 .4-.425c.134-.082.294-.121.428-.2.472-.294.439-.985.667-1.5.3-.675 1.043-1.018 1.534-1.565.623-.7.78-1.666 1.438-2.275a1.951 1.951 0 0 1 .217-.176 10.9 10.9 0 0 0-.387 3.187c-.063 3.689.859 7.5.428 11.168a7.7 7.7 0 0 0 3.985 7.257 19.3 19.3 0 0 0 3.1 1.307c1.587.563 3.173 1.142 4.729 1.792 1.1.456 2.2.95 3.255 1.474a40.083 40.083 0 0 1 3.843 2.13 14.823 14.823 0 0 1 4.145 3.412 3.718 3.718 0 0 0 2.679-1.474 10.336 10.336 0 0 0 1.466-2.775 7.709 7.709 0 0 0 .7-2.616.522.522 0 0 0-.291-.469l-7.263-3.843-1.372-.719c-2.973-1.578-6.038-3.038-9.028-4.614-.2.058-.365-.17-.423-.368s-.1-.445-.288-.533c-.1-.044-.217-.044-.274-.121a.329.329 0 0 1-.049-.242c.1-1.438 1.134-2.761.925-4.186a5.262 5.262 0 0 1-.274-1.8 8.378 8.378 0 0 1 .549-1.142c.354-.878 0-1.921.39-2.791a6.405 6.405 0 0 0 .524-1.779 12.045 12.045 0 0 1 1.112-3.524 6.363 6.363 0 0 1 1.021-1.548c.22-.233.464-.445.67-.686a5.73 5.73 0 0 0 1.046-2.712 12.959 12.959 0 0 0 .143-5.295 7.528 7.528 0 0 1-.338-1.781c0-.8.36-1.735-.195-2.314a1.811 1.811 0 0 0-.823-.417 24.813 24.813 0 0 0-3.939-.727l-6.055-.788a5.567 5.567 0 0 1-2.017-.524 4.022 4.022 0 0 1-1.7-2.174c-1.065.777-1.466 2.223-2.314 3.228-.414.491-.925.887-1.372 1.337a15.13 15.13 0 0 0-1.521 1.875 33.3 33.3 0 0 0-3.445 5.435c-.469 1.013-.823 2.07-1.213 3.118-1.479 4.136-3.892 8.061-4.894 12.335a22.757 22.757 0 0 0-.983 3.058 5.775 5.775 0 0 0 .954 3.229z" class="cls-9972" data-name="패스 203" transform="translate(-529.529 -442.846)" />
        <path id="패스_204" d="M836.155 566.767a1.88 1.88 0 0 1 .222.895c-.134-.67-1.057-1.04-1.114-1.7-.027-.3.027-.291.217-.129.288.237.411.667.675.934z" class="cls-995" data-name="패스 204" transform="translate(-613.684 -438.164)" />
        <path id="패스_205" d="M826.731 576.373a1.414 1.414 0 0 1 .42.62 1.578 1.578 0 0 1 .082 1.079c-.135-.063-.181-.228-.222-.373a2.576 2.576 0 0 0-.274-.64c-.11-.173-.612-.585-.607-.774-.009-.285.47-.014.601.088z" class="cls-995" data-name="패스 205" transform="translate(-607.063 -445.739)" />
        <path id="패스_206" d="M827.14 490.365a6.925 6.925 0 0 0 1.394.928c1.312.664 2.764 1.013 4.084 1.647a19.815 19.815 0 0 1 1.894 1.1 534.83 534.83 0 0 1 3.922 2.484 4.323 4.323 0 0 1 .865.656c.472.505.469 1.372.9 1.921a2.58 2.58 0 0 0 1.9.878 6.176 6.176 0 0 0 2.122-.357 10.491 10.491 0 0 0 1.213-.442 5.618 5.618 0 0 0 1.164-.664 3.346 3.346 0 0 0 1.372-2.166 4.276 4.276 0 0 0-.233-1.768 6.891 6.891 0 0 0-.417-1.073 4.164 4.164 0 0 0-.335-.563 6.218 6.218 0 0 0-4.021-2.177c-.81-.156-1.633-.253-2.446-.39a8.746 8.746 0 0 1-1.183.181 11.114 11.114 0 0 1-3.683-.579l-1.312-.362c-.656-.181-.985-.974-1.647-1.114a2.229 2.229 0 0 0-.892.047 12.294 12.294 0 0 0-3.9 1.274 5.851 5.851 0 0 0-.761.539z" class="cls-995" data-name="패스 206" transform="translate(-607.796 -382.126)" />
        <path id="패스_207" d="M803.047 431.36c.167 1.6 1.518 2.775 2.341 4.156.4.672.681 1.408 1.04 2.1a20.583 20.583 0 0 0 1.372 2.2l1.469 2.133a22.067 22.067 0 0 0 2.841 3.568c1.921.327 3.541 1.757 5.366 2.451a28.272 28.272 0 0 0 4.589.93 6.206 6.206 0 0 1 4.021 2.177 5.715 5.715 0 0 1 .752 1.647 4.265 4.265 0 0 1 .233 1.765 3.346 3.346 0 0 1-1.372 2.168 7.607 7.607 0 0 1-2.374 1.1 6.242 6.242 0 0 1-2.122.357 2.591 2.591 0 0 1-1.9-.878c-.428-.549-.425-1.425-.9-1.921a4.322 4.322 0 0 0-.865-.656l-3.922-2.47a19.8 19.8 0 0 0-1.894-1.1c-1.32-.645-2.772-.994-4.084-1.647a4.823 4.823 0 0 1-2.791-3.206c-.8-4.444-3.876-8.19-6.505-11.86.085-.016.06-.214.091-.3a3.843 3.843 0 0 1 1.921-1.943 9.7 9.7 0 0 1 2.693-.771z" class="cls-9971" data-name="패스 207" transform="translate(-586.901 -340.684)" />
        <path id="패스_208" d="M865.967 423.366a2.435 2.435 0 0 1 .274-1.394 3.123 3.123 0 0 1 2.177-1.15c.829-.17 1.592-.3 2.393-.417a5.518 5.518 0 0 1 1.979-.036 13.36 13.36 0 0 1 2.47 1.169 17.56 17.56 0 0 0 3.14.8 4.824 4.824 0 0 1 2.8 1.515 5.253 5.253 0 0 1 .854 2.292c1.254 6.76-.1 13.694-.351 20.564-.1 2.673.019 5.531 1.548 7.729l-4.449-.118a4.048 4.048 0 0 1-4.757-3.349 7.959 7.959 0 0 1-.571-2.292c-.069-1.614.848-3.2.549-4.787a5.4 5.4 0 0 0-2.009-2.923 18.565 18.565 0 0 1-2.7-2.4 8.764 8.764 0 0 1-1.422-6.135 23.2 23.2 0 0 0 .217-3.823 4.811 4.811 0 0 0-1.007-2.679 3.776 3.776 0 0 1-1.135-2.566z" class="cls-9972" data-name="패스 208" transform="translate(-635.957 -332.657)" />
        <path id="패스_209" d="M866.236 423.389a3.057 3.057 0 0 1 2.133-1.139 2.1 2.1 0 0 0-1.057.823 2.471 2.471 0 0 0-.275 1.4 3.72 3.72 0 0 0 1.139 2.566 4.787 4.787 0 0 1 1.01 2.679 23.534 23.534 0 0 1-.217 3.823 8.739 8.739 0 0 0 1.422 6.135 18.027 18.027 0 0 0 2.7 2.4A5.348 5.348 0 0 1 875.1 445c.3 1.586-.62 3.173-.549 4.787a7.825 7.825 0 0 0 .568 2.289 4.049 4.049 0 0 0 4.759 3.351l3.151.082c.069.115.143.231.22.343l-4.449-.118a4.048 4.048 0 0 1-4.757-3.349 7.961 7.961 0 0 1-.571-2.292c-.069-1.614.848-3.2.549-4.787a5.4 5.4 0 0 0-2.009-2.923 18.571 18.571 0 0 1-2.7-2.4 8.764 8.764 0 0 1-1.422-6.135 23.206 23.206 0 0 0 .217-3.823 4.812 4.812 0 0 0-1.007-2.679 3.734 3.734 0 0 1-1.142-2.566 2.435 2.435 0 0 1 .277-1.389z" class="cls-995" data-name="패스 209" transform="translate(-635.952 -334.075)" />
        <path id="패스_210" d="M745.22 645.252l8.174 19.913a3.985 3.985 0 0 0 1.136-1.254 26.86 26.86 0 0 0-2.665-7.2c-.436-.714-.936-1.372-1.372-2.089-1.3-2.045-1.567-4.622-3.052-6.535a1.12 1.12 0 0 1 0-1.328c.17-.222.445-.434.393-.711-.038-.2-.247-.382-.167-.568.038-.091.132-.14.2-.206.253-.231.22-.629.244-.969a4.75 4.75 0 0 1 1.076-2.336 1.466 1.466 0 0 1 .4-.425c.135-.082.294-.121.428-.2.472-.294.439-.985.667-1.5.3-.675 1.043-1.018 1.534-1.564.623-.7.78-1.666 1.438-2.275l.058-.143-.618-3.843z" class="cls-995" data-name="패스 210" transform="translate(-548.361 -486.268)" />
        <ellipse id="타원_16" cx="9.318" cy="1.792" class="cls-996" data-name="타원 16" rx="9.318" ry="1.792" transform="translate(258.857 179.183)" />
        <ellipse id="타원_17" cx="1.084" cy="1.419" class="cls-993" data-name="타원 17" rx="1.084" ry="1.419" transform="translate(267.248 178.793)" />
        <ellipse id="타원_18" cx="1.084" cy="1.419" class="cls-993" data-name="타원 18" rx="1.084" ry="1.419" transform="translate(267.248 177.059)" />
        <ellipse id="타원_19" cx="1.084" cy="1.419" class="cls-993" data-name="타원 19" rx="1.084" ry="1.419" transform="translate(267.248 175.321)" />
        <ellipse id="타원_20" cx="1.084" cy="1.419" class="cls-993" data-name="타원 20" rx="1.084" ry="1.419" transform="translate(267.248 173.586)" />
        <ellipse id="타원_21" cx="1.084" cy="1.419" class="cls-993" data-name="타원 21" rx="1.084" ry="1.419" transform="translate(267.248 171.849)" />
        <ellipse id="타원_22" cx="1.084" cy="1.419" class="cls-993" data-name="타원 22" rx="1.084" ry="1.419" transform="translate(267.248 170.114)" />
        <ellipse id="타원_23" cx="1.084" cy="1.419" class="cls-993" data-name="타원 23" rx="1.084" ry="1.419" transform="translate(267.248 168.38)" />
        <path id="패스_211" d="M987.882 654.069a5.145 5.145 0 0 1-.4-.6l2.849-.469-3.082.025a5.215 5.215 0 0 1-.1-4.117l4.136 2.144-3.815-2.8a5.2 5.2 0 1 1 8.583 5.816 5.032 5.032 0 0 1 .593.947l-3.7 1.921 3.947-1.323a5.235 5.235 0 0 1 .274 1.666 20.617 20.617 0 0 0-1.673 10.243 10.521 10.521 0 0 1-7.61-13.454z" class="cls-996" data-name="패스 211" transform="translate(-723.612 -496.15)" />
        <path id="패스_212" d="M997.164 687.849a20.619 20.619 0 0 0-1.673 10.243 5.2 5.2 0 0 1-7.61-7.029c-.697-.884 9.283-3.796 9.283-3.214z" class="cls-995" data-name="패스 212" transform="translate(-723.611 -526.718)" />
        <ellipse id="타원_24" cx="6.266" cy="1.205" class="cls-996" data-name="타원 24" rx="6.266" ry="1.205" transform="translate(280.058 159.865)" />
        <ellipse id="타원_25" cx=".73" cy=".955" class="cls-993" data-name="타원 25" rx=".73" ry=".955" transform="translate(285.701 159.605)" />
        <ellipse id="타원_26" cx=".73" cy=".955" class="cls-993" data-name="타원 26" rx=".73" ry=".955" transform="translate(285.701 158.438)" />
        <ellipse id="타원_27" cx=".73" cy=".955" class="cls-993" data-name="타원 27" rx=".73" ry=".955" transform="translate(285.701 157.269)" />
        <ellipse id="타원_28" cx=".73" cy=".955" class="cls-993" data-name="타원 28" rx=".73" ry=".955" transform="translate(285.701 156.102)" />
        <ellipse id="타원_29" cx=".73" cy=".955" class="cls-993" data-name="타원 29" rx=".73" ry=".955" transform="translate(285.701 154.936)" />
        <ellipse id="타원_30" cx=".73" cy=".955" class="cls-993" data-name="타원 30" rx=".73" ry=".955" transform="translate(285.701 153.769)" />
        <ellipse id="타원_31" cx=".73" cy=".955" class="cls-993" data-name="타원 31" rx=".73" ry=".955" transform="translate(285.701 152.6)" />
        <path id="패스_213" d="M1059.615 616.343a3.025 3.025 0 0 1-.274-.4l1.921-.316-2.072.016a3.465 3.465 0 0 1-.321-1.46 3.509 3.509 0 0 1 .253-1.309l2.783 1.444-2.566-1.886a3.494 3.494 0 1 1 5.764 3.911 3.44 3.44 0 0 1 .4.637l-2.487 1.293 2.651-.892a44.439 44.439 0 0 0-.933 8.028 7.083 7.083 0 0 1-5.119-9.054z" class="cls-996" data-name="패스 213" transform="translate(-775.914 -470.772)" />
        <path id="패스_214" d="M1065.868 639.094a13.861 13.861 0 0 0-1.117 6.894 3.5 3.5 0 0 1-5.119-4.734c-.472-.596 6.236-2.554 6.236-2.16z" class="cls-995" data-name="패스 214" transform="translate(-775.929 -491.363)" />
    </g>
</svg>
