<svg xmlns="http://www.w3.org/2000/svg" width="354.741" height="193.871" viewBox="0 0 354.741 193.871">
    <defs>
        <style>
            .cls-001{fill:#f2f2f2}.cls-002{opacity:.03}.cls-003{fill:#3f3d56}.cls-004,.cls-007{fill:#0f4c81}.cls-0017,.cls-005,.cls-009{fill:none;stroke-miterlimit:10}.cls-005{stroke:#f2f2f2;stroke-width:2px}.cls-006{fill:#fff}.cls-007{opacity:.3}.cls-008{fill:#3acc6c}.cls-009{stroke:#3f3d56;stroke-width:4px}.cls-0010{fill:#57b894}.cls-0011,.cls-0017{opacity:.1}.cls-0012{fill:#656380}.cls-0013{opacity:.2}.cls-0014{fill:#ffc1c7}.cls-0015{fill:#ff6584}.cls-0016{fill:#3c354c}.cls-0017{stroke:#000}
        </style>
    </defs>
    <g id="undraw_checking_boxes_2ibd" transform="translate(0 .028)">
        <path id="패스_263" d="M307.587 166.925l-15.371 19.039 12.252-21.227a30.71 30.71 0 0 0-5.931-2.821 30.546 30.546 0 1 0-60.915-1.667l27.764 1.826-27.276 2.45a30.592 30.592 0 0 0 13.527 20.088l15.2-9.862-12.637 11.334a30.613 30.613 0 0 0 3.882 1.67 30.54 30.54 0 0 0 20.318 31.821 30.543 30.543 0 0 0 41.55 31.441 10.477 10.477 0 0 0 1.414 3.367 10.03 10.03 0 0 0 3.867 3.584 10.434 10.434 0 0 0 5.488 8.6 10.452 10.452 0 0 0 5.488 8.6 10.446 10.446 0 0 0 5.485 8.6 10.067 10.067 0 0 0 1.621 5.015c2.48 3.885 6.9 5.5 9.868 3.617s3.364-6.579.883-10.467a10.078 10.078 0 0 0-3.861-3.59 10.452 10.452 0 0 0-5.5-8.611 10.446 10.446 0 0 0-5.491-8.6 10.434 10.434 0 0 0-5.488-8.6 10.064 10.064 0 0 0-1.624-5.015 10.428 10.428 0 0 0-2.411-2.67 30.54 30.54 0 0 0-10.823-51.1 30.564 30.564 0 0 0-11.281-26.824z" class="cls-001" data-name="패스 263" transform="translate(-169.449 -128.39)"/>
        <path id="패스_264" d="M631.579 191.614l-2.743 1.739 1.667-3.029a2.712 2.712 0 0 0-1.661-.6h-.042a3.252 3.252 0 0 1-.57-.042l-.931.6.4-.726a3.315 3.315 0 0 1-1.628-1.233l-1.664 1.055 1.052-1.911a4.874 4.874 0 0 0-3.728-1.887 5.109 5.109 0 0 0-4.268 2.634 3.186 3.186 0 0 1-2.821 1.507h-.093c-1.911 0-3.46 2.167-3.46 4.822s1.549 4.837 3.46 4.837a2.6 2.6 0 0 0 1.206-.3 4.991 4.991 0 0 1 4.186-.081 4.376 4.376 0 0 0 3.559 0 5 5 0 0 1 4.15.081 2.6 2.6 0 0 0 1.206.3c1.911 0 3.46-2.164 3.46-4.837a6.112 6.112 0 0 0-.738-2.93z" class="cls-001" data-name="패스 264" transform="translate(-430.377 -168.363)"/>
        <path id="패스_265" d="M626.4 213.343a5.124 5.124 0 0 0-2.963.323 4.376 4.376 0 0 1-3.56 0 5 5 0 0 0-4.189.081 2.577 2.577 0 0 1-1.206.3c-1.7 0-3.11-1.709-3.406-3.963a3.3 3.3 0 0 0 .85-.9 4.772 4.772 0 0 1 8.514-.03 3.27 3.27 0 0 0 2.821 1.549h.045c1.358-.024 2.518 1.061 3.094 2.64z" class="cls-002" data-name="패스 265" transform="translate(-430.37 -183.012)"/>
        <path id="패스_266" d="M968.579 152.614l-2.743 1.739 1.667-3.029a2.713 2.713 0 0 0-1.661-.6h-.042a3.252 3.252 0 0 1-.57-.042l-.931.6.4-.726a3.315 3.315 0 0 1-1.628-1.233l-1.664 1.055 1.052-1.911a4.874 4.874 0 0 0-3.728-1.887 5.109 5.109 0 0 0-4.268 2.634 3.186 3.186 0 0 1-2.821 1.507h-.093c-1.911 0-3.46 2.167-3.46 4.822s1.549 4.837 3.46 4.837a2.6 2.6 0 0 0 1.206-.3 4.991 4.991 0 0 1 4.186-.081 4.376 4.376 0 0 0 3.559 0 5 5 0 0 1 4.15.081 2.6 2.6 0 0 0 1.206.3c1.911 0 3.46-2.164 3.46-4.837a6.111 6.111 0 0 0-.738-2.93z" class="cls-001" data-name="패스 266" transform="translate(-665.807 -141.117)"/>
        <path id="패스_267" d="M963.4 174.343a5.124 5.124 0 0 0-2.963.322 4.376 4.376 0 0 1-3.559 0 5 5 0 0 0-4.189.081 2.577 2.577 0 0 1-1.206.3c-1.7 0-3.11-1.709-3.406-3.963a3.294 3.294 0 0 0 .85-.9 4.772 4.772 0 0 1 8.514-.03 3.27 3.27 0 0 0 2.821 1.549h.045c1.357-.023 2.517 1.062 3.093 2.641z" class="cls-002" data-name="패스 267" transform="translate(-665.8 -155.767)"/>
        <path id="패스_268" d="M788.635 238.6l4.418 2.809-2.676-4.868a4.364 4.364 0 0 1 2.667-.949h.069a5.149 5.149 0 0 0 .9-.066l1.492.946-.648-1.163a5.359 5.359 0 0 0 2.613-1.983l2.673 1.694-1.67-3.071a7.817 7.817 0 0 1 5.989-3.014 8.219 8.219 0 0 1 6.857 4.22 5.124 5.124 0 0 0 4.521 2.444h.16c3.068 0 5.555 3.478 5.555 7.77s-2.487 7.773-5.555 7.773a4.177 4.177 0 0 1-1.938-.485 8.014 8.014 0 0 0-6.724-.13 7.017 7.017 0 0 1-5.727 0 8.029 8.029 0 0 0-6.667.13 4.19 4.19 0 0 1-1.914.473c-3.071 0-5.558-3.478-5.558-7.773a9.881 9.881 0 0 1 1.163-4.757z" class="cls-001" data-name="패스 268" transform="translate(-553.596 -198.647)"/>
        <path id="패스_269" d="M818.89 273.446a8.246 8.246 0 0 1 4.762.518 7.017 7.017 0 0 0 5.727 0 8.02 8.02 0 0 1 6.727.13 4.165 4.165 0 0 0 1.935.485c2.728 0 4.994-2.746 5.467-6.368a5.254 5.254 0 0 1-1.362-1.471 7.669 7.669 0 0 0-13.68-.036 5.256 5.256 0 0 1-4.521 2.487h-.069c-2.189-.022-4.07 1.72-4.986 4.255z" class="cls-002" data-name="패스 269" transform="translate(-575.547 -222.113)"/>
        <ellipse id="타원_39" cx="177.371" cy="6.329" class="cls-003" data-name="타원 39" rx="177.371" ry="6.329" transform="translate(0 181.185)"/>
        <rect id="사각형_48" width="251.363" height="137.436" class="cls-001" data-name="사각형 48" rx="20.42" transform="translate(51.689 46.989)"/>
        <path id="패스_270" d="M434.363 290.514V294H183v-3.49a6.154 6.154 0 0 1 6.154-6.154h239.055a6.154 6.154 0 0 1 6.154 6.158z" class="cls-003" data-name="패스 270" transform="translate(-131.311 -237.371)"/>
        <circle id="타원_40" cx="1.808" cy="1.808" r="1.808" class="cls-004" data-name="타원 40" transform="translate(56.361 50.154)"/>
        <circle id="타원_41" cx="1.808" cy="1.808" r="1.808" class="cls-004" data-name="타원 41" transform="translate(60.882 50.154)"/>
        <circle id="타원_42" cx="1.808" cy="1.808" r="1.808" class="cls-004" data-name="타원 42" transform="translate(65.403 50.154)"/>
        <rect id="사각형_49" width="28.934" height="23.509" class="cls-006" data-name="사각형 49" rx="9.29" transform="translate(89.966 72.608)"/>
        <rect id="사각형_50" width="28.934" height="23.509" class="cls-004" data-name="사각형 50" rx="9.29" transform="translate(123.722 72.608)"/>
        <rect id="사각형_51" width="28.934" height="23.509" class="cls-006" data-name="사각형 51" rx="9.29" transform="translate(157.479 72.608)"/>
        <rect id="사각형_52" width="28.934" height="23.509" class="cls-006" data-name="사각형 52" rx="9.29" transform="translate(191.235 72.608)"/>
        <rect id="사각형_53" width="28.934" height="23.509" class="cls-004" data-name="사각형 53" rx="9.29" transform="translate(224.991 72.608)"/>
        <rect id="사각형_54" width="28.934" height="23.509" class="cls-006" data-name="사각형 54" rx="9.29" transform="translate(89.966 112.09)"/>
        <rect id="사각형_55" width="28.934" height="23.509" class="cls-006" data-name="사각형 55" rx="9.29" transform="translate(123.722 112.09)"/>
        <rect id="사각형_56" width="28.934" height="23.509" class="cls-004" data-name="사각형 56" rx="9.29" transform="translate(157.479 112.09)"/>
        <rect id="사각형_57" width="28.934" height="23.509" class="cls-006" data-name="사각형 57" rx="9.29" transform="translate(191.235 112.09)"/>
        <rect id="사각형_58" width="28.934" height="23.509" class="cls-006" data-name="사각형 58" rx="9.29" transform="translate(224.991 112.09)"/>
        <rect id="사각형_59" width="28.934" height="23.509" class="cls-006" data-name="사각형 59" rx="9.29" transform="translate(89.966 151.573)"/>
        <rect id="사각형_60" width="28.934" height="23.509" class="cls-006" data-name="사각형 60" rx="9.29" transform="translate(123.722 151.573)"/>
        <rect id="사각형_61" width="28.934" height="23.509" class="cls-006" data-name="사각형 61" rx="9.29" transform="translate(157.479 151.573)"/>
        <rect id="사각형_62" width="28.934" height="23.509" class="cls-007" data-name="사각형 62" rx="9.29" transform="translate(191.235 151.573)"/>
        <rect id="사각형_63" width="28.934" height="23.509" class="cls-006" data-name="사각형 63" rx="9.29" transform="translate(224.991 151.573)"/>
        <path id="패스_273" d="M495.7 350.889l-1.525-1.534a.808.808 0 0 0-1.148 0l-9.572 9.491-4.048-4.081a.8.8 0 0 0-1.139 0l-1.54 1.522a.82.82 0 0 0 0 1.151l6.145 6.194a.82.82 0 0 0 1.151 0L495.7 352.04a.808.808 0 0 0 0-1.151z" class="cls-008" data-name="패스 273" transform="translate(-336.342 -282.609)"/>
        <path id="패스_274" d="M835.7 350.889l-1.525-1.534a.808.808 0 0 0-1.148 0l-9.572 9.491-4.048-4.081a.8.8 0 0 0-1.139 0l-1.54 1.522a.82.82 0 0 0 0 1.151l6.145 6.194a.82.82 0 0 0 1.151 0L835.7 352.04a.808.808 0 0 0 0-1.151z" class="cls-008" data-name="패스 274" transform="translate(-573.868 -282.609)"/>
        <path id="패스_275" d="M607.7 480.889l-1.525-1.534a.808.808 0 0 0-1.148 0l-9.572 9.491-4.048-4.081a.8.8 0 0 0-1.139 0l-1.54 1.522a.82.82 0 0 0 0 1.151l6.145 6.194a.82.82 0 0 0 1.151 0L607.7 482.04a.808.808 0 0 0 0-1.151z" class="cls-008" data-name="패스 275" transform="translate(-414.586 -373.428)"/>
        <path id="패스_276" d="M718.7 616.889l-1.525-1.534a.808.808 0 0 0-1.148 0l-9.572 9.491-4.048-4.081a.8.8 0 0 0-1.139 0l-1.54 1.507a.82.82 0 0 0 0 1.151l6.145 6.194a.82.82 0 0 0 1.151 0l11.676-11.592a.808.808 0 0 0 0-1.136z" class="cls-008" data-name="패스 276" transform="translate(-492.131 -468.438)"/>
        <path id="패스_277" d="M1005.491 662.018c-.9-1.661.121-3.7 1.293-5.178s2.595-3.014 2.565-4.91c-.045-2.713-2.924-4.316-5.223-5.754a25.321 25.321 0 0 1-4.69-3.77 6.874 6.874 0 0 1-1.436-1.928 7.821 7.821 0 0 1-.434-3.427q.154-5.8.576-11.6" class="cls-009" data-name="패스 277" transform="translate(-700.36 -475.658)"/>
        <path id="패스_278" d="M984.99 615.4a4.219 4.219 0 0 1 2.11-3.466l.946 1.875-.03-2.27a4.287 4.287 0 0 1 1.4-.169 4.22 4.22 0 1 1-4.422 4.03z" class="cls-0010" data-name="패스 278" transform="translate(-691.583 -465.819)"/>
        <path id="패스_279" d="M1008.91 705.474a4.22 4.22 0 1 0-.2-3.406l2.643 2.149-2.908-.672a4.22 4.22 0 0 0 .47 1.929z" class="cls-0010" data-name="패스 279" transform="translate(-707.968 -527.264)"/>
        <path id="패스_280" d="M1007.647 672.917a4.22 4.22 0 0 0 1.326-8.285l.024 1.742-.958-1.9a4.219 4.219 0 0 0-4.421 4.027 4.172 4.172 0 0 0 .181 1.444 4.22 4.22 0 0 0 3.849 2.969z" class="cls-0010" data-name="패스 280" transform="translate(-704.595 -502.92)"/>
        <path id="패스_281" d="M973.534 650.266a4.22 4.22 0 1 0-1.872-7.918l.747 2.049-1.537-1.477a4.22 4.22 0 0 0-1.365 2.921 4.161 4.161 0 0 0 .105 1.166 4.22 4.22 0 0 0 3.921 3.258z" class="cls-0010" data-name="패스 281" transform="translate(-680.765 -487.101)"/>
        <path id="패스_282" d="M985.769 621.9c.977.105 1.926.41 2.905.47a3.16 3.16 0 0 0 2.676-.934 13.092 13.092 0 0 0 .781-1.377 3.014 3.014 0 0 1 1.067-1 4.22 4.22 0 1 1-7.909 2.809q.242 0 .48.032z" class="cls-0011" data-name="패스 282" transform="translate(-691.795 -471.187)"/>
        <path id="패스_283" d="M973.812 655.848a4.22 4.22 0 0 0 4.024-6.028 3.125 3.125 0 0 0-.85.85 13.822 13.822 0 0 1-.838 1.4 3.465 3.465 0 0 1-2.806.983c-1.022-.045-2.007-.338-3.014-.431-.142 0-.283-.021-.428-.024a4.22 4.22 0 0 0 3.912 3.252z" class="cls-0011" data-name="패스 283" transform="translate(-681.044 -492.683)"/>
        <path id="패스_284" d="M1008.093 678.686a4.219 4.219 0 0 0 4.057-5.956 3.461 3.461 0 0 0-.9.859c-.329.464-.534 1-.9 1.426a3.917 3.917 0 0 1-2.993 1.052c-1.079-.024-2.059-.28-3.1-.362a4.22 4.22 0 0 0 3.836 2.981z" class="cls-0011" data-name="패스 284" transform="translate(-705.041 -508.688)"/>
        <path id="패스_285" d="M1010 711.741a4.225 4.225 0 0 0 7.713-3.451 4.1 4.1 0 0 0-.928.829 18.365 18.365 0 0 1-1.133 1.507 5.269 5.269 0 0 1-3.505 1.233 18.085 18.085 0 0 1-2.147-.118z" class="cls-0011" data-name="패스 285" transform="translate(-709.058 -533.531)"/>
        <path id="패스_286" d="M1016.27 736.249s-3.339-.1-4.346-.82-5.124-1.57-5.383-.422-5.018 5.727-1.251 5.745 8.759-.6 9.765-1.206 1.215-3.297 1.215-3.297z" class="cls-0012" data-name="패스 286" transform="translate(-704.758 -551.803)"/>
        <path id="패스_287" d="M1005.253 744.514c3.77.03 8.759-.588 9.762-1.206.766-.467 1.07-2.137 1.172-2.908h.112s-.211 2.694-1.206 3.315-5.995 1.23-9.765 1.206c-1.088 0-1.462-.395-1.441-.968.143.338.556.547 1.366.561z" class="cls-0013" data-name="패스 287" transform="translate(-704.787 -555.963)"/>
        <path id="패스_288" d="M168.682 616.893c-1.323-2.447.178-5.449 1.9-7.634s3.828-4.455 3.786-7.233c-.066-4-4.31-6.359-7.7-8.481a37.554 37.554 0 0 1-6.914-5.558 10.184 10.184 0 0 1-2.11-2.845 11.531 11.531 0 0 1-.636-5.057q.217-8.56.844-17.1" class="cls-009" data-name="패스 288" transform="translate(-113.138 -432.016)"/>
        <path id="패스_289" d="M138.394 548.115a6.233 6.233 0 0 1 3.113-5.124l1.4 2.764-.042-3.346a6.239 6.239 0 1 1-4.47 5.693z" class="cls-0010" data-name="패스 289" transform="translate(-100.144 -417.468)"/>
        <path id="패스_290" d="M173.7 680.933a6.236 6.236 0 1 0-.3-5.021l3.894 3.168-4.294-.992a6.212 6.212 0 0 0 .7 2.845z" class="cls-0010" data-name="패스 290" transform="translate(-124.325 -508.07)"/>
        <path id="패스_291" d="M171.753 632.917a6.239 6.239 0 0 0 1.977-12.237l.033 2.568-1.414-2.794h-.015a6.238 6.238 0 1 0-.582 12.463z" class="cls-0010" data-name="패스 291" transform="translate(-119.298 -472.163)"/>
        <path id="패스_292" d="M121.49 599.48a6.242 6.242 0 0 0 6.522-5.941 6.16 6.16 0 0 0-.6-2.957 6.23 6.23 0 0 0-8.689-2.776l1.1 3.014-2.266-2.176a6.239 6.239 0 0 0 3.918 10.829z" class="cls-0010" data-name="패스 292" transform="translate(-84.178 -448.802)"/>
        <path id="패스_293" d="M139.558 557.722c1.438.16 2.839.6 4.283.7a4.644 4.644 0 0 0 3.945-1.38 19.379 19.379 0 0 0 1.154-2.028 4.451 4.451 0 0 1 1.57-1.48 6.239 6.239 0 1 1-11.661 4.141c.236.005.474.025.709.047z" class="cls-0011" data-name="패스 293" transform="translate(-100.467 -425.415)"/>
        <path id="패스_294" d="M121.873 607.767a6.242 6.242 0 0 0 6.522-5.94 6.16 6.16 0 0 0-.6-2.957 4.639 4.639 0 0 0-1.254 1.254 19.941 19.941 0 0 1-1.236 2.062 5.123 5.123 0 0 1-4.135 1.447c-1.5-.06-2.96-.494-4.458-.633a10.922 10.922 0 0 0-.63-.039 6.236 6.236 0 0 0 5.791 4.806z" class="cls-0011" data-name="패스 294" transform="translate(-84.56 -457.089)"/>
        <path id="패스_295" d="M172.392 641.463a6.236 6.236 0 0 0 5.983-8.783 5.031 5.031 0 0 0-1.317 1.269 21.991 21.991 0 0 1-1.356 2.11 5.775 5.775 0 0 1-4.415 1.549c-1.543-.036-3.032-.413-4.566-.53a6.242 6.242 0 0 0 5.671 4.385z" class="cls-0011" data-name="패스 295" transform="translate(-119.938 -480.709)"/>
        <path id="패스_296" d="M175.32 690.2a6.239 6.239 0 0 0 11.372-5.091 6.3 6.3 0 0 0-1.371 1.206 26.652 26.652 0 0 1-1.67 2.218 7.783 7.783 0 0 1-5.166 1.808 26.848 26.848 0 0 1-3.165-.141z" class="cls-0011" data-name="패스 296" transform="translate(-125.946 -517.337)"/>
        <path id="패스_297" d="M184.54 726.351s-4.922-.151-6.408-1.206-7.571-2.318-7.939-.624-7.4 8.439-1.842 8.472 12.915-.865 14.395-1.769 1.794-4.873 1.794-4.873z" class="cls-0012" data-name="패스 297" transform="translate(-119.59 -544.292)"/>
        <path id="패스_298" d="M168.3 738.545c5.558.045 12.915-.865 14.395-1.766 1.127-.687 1.579-3.153 1.727-4.289h.166s-.3 3.969-1.793 4.871-8.837 1.808-14.395 1.769c-1.6 0-2.158-.585-2.128-1.429.215.516.818.835 2.028.844z" class="cls-0013" data-name="패스 298" transform="translate(-119.62 -550.437)"/>
        <path id="패스_299" d="M852.494 689.9a1.457 1.457 0 0 0-.1.395c-.479 3.156-3.237 5.485-4.244 8.514a8.168 8.168 0 0 0 .356 5.989 1.979 1.979 0 0 1 .274.865c0 .3-.241.63-.545.6a4.369 4.369 0 0 1-1.914-.995 6.814 6.814 0 0 1-1.947-1.808 3.37 3.37 0 0 1-.576-2.541c.362-1.646 1.619-3.113 2.01-4.753l1.028-4.253a6.653 6.653 0 0 1 .844-2.269 1.4 1.4 0 0 1 .711-.6 1.683 1.683 0 0 1 .536-.042 12.811 12.811 0 0 1 3.567.898z" class="cls-0014" data-name="패스 299" transform="translate(-592.915 -520.055)"/>
        <path id="패스_300" d="M845.312 730.2a.57.57 0 0 1 .326.024.807.807 0 0 1 .3.386 3.532 3.532 0 0 0 1.42 1.426 4.111 4.111 0 0 1 .693.392.8.8 0 0 1 .334.687c-.048.395-.479.6-.859.72a6.445 6.445 0 0 1-2.514.22 2.2 2.2 0 0 1-.9-.253 2.675 2.675 0 0 1-.7-.705 17.476 17.476 0 0 0-2.23-2.529 9.761 9.761 0 0 1-1.169-1.088 1.941 1.941 0 0 1-.491-1.471c.118-.784.859-1.3 1.326-1.938a13.24 13.24 0 0 1 1.965 3.077 8.845 8.845 0 0 0 .561 1.323c.214.353.521.76.9.53s.481-.701 1.038-.801z" class="cls-0015" data-name="패스 300" transform="translate(-589.956 -545.952)"/>
        <path id="패스_301" d="M865.042 615.27a3.967 3.967 0 0 1 .268 1.784l-.027 4.5a18.087 18.087 0 0 1-.139 2.619c-.238 1.564-.88 3.044-1.16 4.6a38.937 38.937 0 0 1-.645 4.4c-.669 2.2-2.441 3.948-3.065 6.167a.7.7 0 0 1-.178.359.516.516 0 0 1-.253.108 2.691 2.691 0 0 1-1.45-.271l-3.24-1.272c-.223.1-.377-.16-.365-.407a1.179 1.179 0 0 1 .323-.642 10.774 10.774 0 0 0 1.043-1.606 14.434 14.434 0 0 0 1.507-5.814 42.969 42.969 0 0 0-.178-6.028l-.332-4.346a3.12 3.12 0 0 1 .3-2.013 2.974 2.974 0 0 1 1.7-1.013 27.635 27.635 0 0 1 5.891-1.125z" class="cls-0016" data-name="패스 301" transform="translate(-600.625 -468.546)"/>
        <path id="패스_302" d="M865.042 615.27a3.967 3.967 0 0 1 .268 1.784l-.027 4.5a18.087 18.087 0 0 1-.139 2.619c-.238 1.564-.88 3.044-1.16 4.6a38.937 38.937 0 0 1-.645 4.4c-.669 2.2-2.441 3.948-3.065 6.167a.7.7 0 0 1-.178.359.516.516 0 0 1-.253.108 2.691 2.691 0 0 1-1.45-.271l-3.24-1.272c-.223.1-.377-.16-.365-.407a1.179 1.179 0 0 1 .323-.642 10.774 10.774 0 0 0 1.043-1.606 14.434 14.434 0 0 0 1.507-5.814 42.969 42.969 0 0 0-.178-6.028l-.332-4.346a3.12 3.12 0 0 1 .3-2.013 2.974 2.974 0 0 1 1.7-1.013 27.635 27.635 0 0 1 5.891-1.125z" class="cls-0011" data-name="패스 302" transform="translate(-600.625 -468.546)"/>
        <path id="패스_303" d="M897.968 620.08a9.368 9.368 0 0 0-1.082 2.083 11.154 11.154 0 0 0-.365 1.694 37.17 37.17 0 0 0-.684 8.035 1.694 1.694 0 0 1-1.507-.374 4.307 4.307 0 0 1-.986-1.275 13.551 13.551 0 0 1-.811-1.621 10.153 10.153 0 0 1-.769-3.951.682.682 0 0 1 .054-.323.746.746 0 0 1 .16-.19 18.3 18.3 0 0 0 3.761-6.209 11.484 11.484 0 0 0 .808-2.282 5.231 5.231 0 0 1 .675-2.312 2.907 2.907 0 0 1 1.911-.9 3.6 3.6 0 0 1 1.543.063c.549.169 1.848.811 1.923 1.459s-1.082 1.477-1.459 1.908a36.726 36.726 0 0 0-3.172 4.195z" class="cls-0014" data-name="패스 303" transform="translate(-626.457 -466.539)"/>
        <path id="패스_304" d="M891.86 658.4c.386.648.925 1.371.651 2.071a1.275 1.275 0 0 1-1.881.425 2.9 2.9 0 0 1-.47-.452 46.368 46.368 0 0 1-4.521-5.95 5.846 5.846 0 0 1-1.073-2.535.53.53 0 0 1 .042-.3.582.582 0 0 1 .235-.2 11.705 11.705 0 0 1 2.61-1.085 5.536 5.536 0 0 0 .772 2.939 14.04 14.04 0 0 1 .995 2.013c.2.506.416.546.943.552.425 0 .729-.051.934.38a22.62 22.62 0 0 0 .763 2.142z" class="cls-0015" data-name="패스 304" transform="translate(-621.424 -493.068)"/>
        <path id="패스_305" d="M859.311 590c3.876.06 7.746.332 11.613.6l2.514.178a9.393 9.393 0 0 1 2.191.326 9.616 9.616 0 0 1 1.941.961 1.7 1.7 0 0 1 .542.434 1.624 1.624 0 0 1 .229.6 3.432 3.432 0 0 1 .142 1.392 3.4 3.4 0 0 1-.371.955l-1.76 3.478c-.564-.184-1-.552-1.552-.769a7.66 7.66 0 0 0-2.056-.392l-1.833-.181a.522.522 0 0 1-.051-.362c-1.609.561-3.213 1.082-4.822 1.643-2.954 1.028-5.913 2.059-8.758 3.361a1.8 1.8 0 0 1-1.335.232 1.388 1.388 0 0 1-.419-.277 4.307 4.307 0 0 1-1.3-2.523 9.408 9.408 0 0 1 .042-2.878 8.326 8.326 0 0 1 2.366-5.308 4.218 4.218 0 0 1 2.677-1.47z" class="cls-0016" data-name="패스 305" transform="translate(-600.172 -450.891)"/>
        <path id="패스_306" d="M913.49 601.24a18.54 18.54 0 0 0-2.49 1.46 2.024 2.024 0 0 0-.329.268 2.462 2.462 0 0 0-.2.265 4.979 4.979 0 0 0-.85 1.694" class="cls-0017" data-name="패스 306" transform="translate(-638.932 -458.745)"/>
        <path id="패스_307" d="M762.3 582.181a7.05 7.05 0 0 0-1.245 1.709c-.919 1.447-2.239 2.61-3.147 4.066a7.584 7.584 0 0 1-1.266 1.808 4.064 4.064 0 0 1-2.465.88 5.682 5.682 0 0 0-2.348.4 4.427 4.427 0 0 0-1.411 1.507v.018a.681.681 0 0 0 .814 1.013 12.131 12.131 0 0 1 2-.582 12.655 12.655 0 0 0 1.778-.4 8.319 8.319 0 0 0 1.591-.847 10.341 10.341 0 0 0 1.251-.877c.485-.413.9-.9 1.362-1.341a21.3 21.3 0 0 1 2.11-1.531 16.1 16.1 0 0 0 4.714-5.151 1.169 1.169 0 0 0 .214-.684 1.238 1.238 0 0 0-.3-.6c-.534-.678-1.019-1.233-1.76-.6-.592.477-1.324.715-1.892 1.212z" class="cls-0014" data-name="패스 307" transform="translate(-527.63 -444.385)"/>
        <path id="패스_308" d="M826.7 531.738a.9.9 0 0 0 .193.53c.2.2.527.16.811.142a2.679 2.679 0 0 1 2.128.738 4.887 4.887 0 0 1 .784 3.9 2.851 2.851 0 0 1-1.534 1.549 7.164 7.164 0 0 1-2.164.53 5.4 5.4 0 0 1-1.869 0 8.134 8.134 0 0 1-2.028-.967 11.124 11.124 0 0 1-1.335-.753 2.11 2.11 0 0 1-.871-1.224.663.663 0 0 1 .22-.708 1.254 1.254 0 0 1 .338-.1 1.429 1.429 0 0 0 1.028-1.01c.2-.781-.283-1.567-.332-2.372a1.124 1.124 0 0 1 .142-.672 1.478 1.478 0 0 1 .678-.482l1.507-.675a9.023 9.023 0 0 1 1.42-.63c.479-.124.512.208.6.6.113.538.213 1.066.284 1.604z" class="cls-0014" data-name="패스 308" transform="translate(-576.872 -408.629)"/>
        <path id="패스_309" d="M826.7 531.738a.9.9 0 0 0 .193.53c.2.2.527.16.811.142a2.679 2.679 0 0 1 2.128.738 4.887 4.887 0 0 1 .784 3.9 2.851 2.851 0 0 1-1.534 1.549 7.164 7.164 0 0 1-2.164.53 5.4 5.4 0 0 1-1.869 0 8.134 8.134 0 0 1-2.028-.967 11.124 11.124 0 0 1-1.335-.753 2.11 2.11 0 0 1-.871-1.224.663.663 0 0 1 .22-.708 1.254 1.254 0 0 1 .338-.1 1.429 1.429 0 0 0 1.028-1.01c.2-.781-.283-1.567-.332-2.372a1.124 1.124 0 0 1 .142-.672 1.478 1.478 0 0 1 .678-.482l1.507-.675a9.023 9.023 0 0 1 1.42-.63c.479-.124.512.208.6.6.113.538.213 1.066.284 1.604z" class="cls-0011" data-name="패스 309" transform="translate(-576.872 -408.629)"/>
        <circle id="타원_43" cx="3.758" cy="3.758" r="3.758" class="cls-0014" data-name="타원 43" transform="translate(242.149 116.852)"/>
        <path id="패스_310" d="M809.69 538.957a5.169 5.169 0 0 1 1.766-.446 2.089 2.089 0 0 1 1.646.651 10.087 10.087 0 0 1 .75 1.432c.555.9 1.637 1.317 2.5 1.935a1.885 1.885 0 0 1 .518.506 2.768 2.768 0 0 1 .214 1.588 7.674 7.674 0 0 0 1.106 3.8 22.445 22.445 0 0 0 2.381 3.228 3.22 3.22 0 0 1 .518.769c.211.506.151 1.118.464 1.567a4.379 4.379 0 0 0-2.221.3c-1.088.449-1.139 2.04-1.652 3.1a40.393 40.393 0 0 1-3.511 5.5 7.032 7.032 0 0 0-.832 1.377 4.128 4.128 0 0 1-.1-1.558c-.06-1.166-.735-2.212-.925-3.364a15.894 15.894 0 0 1-.1-1.736 8.305 8.305 0 0 0-.564-2.562 16.444 16.444 0 0 0-1.338-2.511 3.544 3.544 0 0 0-1.01-1.206c-.5-.326-1.19-.419-1.507-.925a2.017 2.017 0 0 0-.3-.488 1.126 1.126 0 0 0-.35-.178 15.4 15.4 0 0 1-1.784-.989 2.871 2.871 0 0 0-1.953-.425 24.113 24.113 0 0 1-4.168 3.822 3.378 3.378 0 0 0-1.224 1.251 6.365 6.365 0 0 1-1.98-1.48 1 1 0 0 1-.211-.3c-.154-.44.3-.835.663-1.112a9.011 9.011 0 0 0 3-3.987c.389-1.022.645-2.2 1.531-2.839a5.266 5.266 0 0 0 .793-.558 10.041 10.041 0 0 0 .6-.94 1.594 1.594 0 0 1 1.673-.567 7.392 7.392 0 0 1 1 .479 5.182 5.182 0 0 0 2.713.2l3.529-.359a1.206 1.206 0 0 0-.259-1.145 3.506 3.506 0 0 0-.467-.371 2.6 2.6 0 0 1-.909-1.459z" class="cls-0015" data-name="패스 310" transform="translate(-559.415 -414.919)"/>
        <path id="패스_311" d="M816.616 506.666a3.249 3.249 0 0 1 1.89 1.851 7.543 7.543 0 0 0 .4 1.058 6.1 6.1 0 0 0 .98 1.091 1.637 1.637 0 0 1 .549 1.311c-.03.181-.108.35-.133.527-.105.781.781 1.317 1.052 2.055.353.971-.416 2.128.054 3.044a9.717 9.717 0 0 0 .7.9c.2.3.223.844-.118 1.028-.53.286-1.145-.552-1.709-.331-.145.057-.256.181-.4.244-.395.178-.856-.172-.986-.585a3.078 3.078 0 0 1 .024-1.284 1.552 1.552 0 0 0-.241-1.233c-.229-.262-.6-.365-.841-.6a2.193 2.193 0 0 1-.3-1.763 4.373 4.373 0 0 0-1.019-3.475.226.226 0 0 0-.16-.087.256.256 0 0 0-.16.1 7.5 7.5 0 0 1-1.35 1.118.85.85 0 0 1-.482.175.306.306 0 0 1-.3-.341 3.541 3.541 0 0 0-1.127.826 1.179 1.179 0 0 1-.09-.518 4.858 4.858 0 0 1-.6.922 7.512 7.512 0 0 0-.663.82 1.206 1.206 0 0 0-.169 1c.338.967 2.059.744 2.432 1.7.081.214.078.449.163.66.166.41.6.6.964.874s.675.732.458 1.115c-.19.329-.633.365-1 .449a2.411 2.411 0 0 0-1.507 1.133 1.423 1.423 0 0 1-.389.533 1.094 1.094 0 0 1-.491.121 1.815 1.815 0 0 1-1.453-.3c-.473-.5-.25-1.4-.732-1.89-.112-.109-.25-.187-.356-.3a1.344 1.344 0 0 1-.268-1.01 28.891 28.891 0 0 0 .362-2.99 17.114 17.114 0 0 0-.383-1.971 5.3 5.3 0 0 1 1.073-4.337 4.648 4.648 0 0 1 3.1-1.507 6.3 6.3 0 0 1 3.226-.133z" class="cls-0016" data-name="패스 311" transform="translate(-568.719 -392.55)"/>
    </g>
</svg>
