<svg xmlns="http://www.w3.org/2000/svg" width="25" height="25" viewBox="0 0 25 25">
    <defs>
        <style>
            .setting{fill:#bbbbbe}
        </style>
    </defs>
    <g id="설정_아이콘" data-name="설정 아이콘" transform="translate(0 109)">
        <path id="패스_220" d="M12.5-92.725A3.775 3.775 0 0 1 8.725-96.5a3.775 3.775 0 0 1 3.775-3.775 3.774 3.774 0 0 1 3.774 3.775 3.774 3.774 0 0 1-3.774 3.775m9.948-3.775A3 3 0 0 1 25-99.444a12.912 12.912 0 0 0-1.586-3.817 2.963 2.963 0 0 1-3.869-.286 2.962 2.962 0 0 1-.285-3.868A12.874 12.874 0 0 0 15.443-109a3 3 0 0 1-2.943 2.552A3 3 0 0 1 9.556-109a12.853 12.853 0 0 0-3.816 1.586 2.963 2.963 0 0 1-.286 3.868 2.963 2.963 0 0 1-3.868.286A12.842 12.842 0 0 0 0-99.444 3 3 0 0 1 2.552-96.5 3 3 0 0 1 0-93.557a12.853 12.853 0 0 0 1.586 3.817 2.963 2.963 0 0 1 3.868.285 2.965 2.965 0 0 1 .286 3.869A12.889 12.889 0 0 0 9.556-84a3 3 0 0 1 2.944-2.552A3 3 0 0 1 15.443-84a12.907 12.907 0 0 0 3.817-1.586 2.964 2.964 0 0 1 .285-3.869 2.964 2.964 0 0 1 3.869-.285A12.923 12.923 0 0 0 25-93.557a3 3 0 0 1-2.552-2.943" class="setting" data-name="패스 220"/>
    </g>
</svg>
