<svg xmlns="http://www.w3.org/2000/svg" width="32.938" height="32.94" viewBox="0 0 32.938 32.94">
    <defs>
        <style>
            .unblock{fill:#a0a0a0}
        </style>
    </defs>
    <g id="noun_ban_1268803_1_" data-name="noun_ban_1268803 (1)" transform="translate(-6.28 -6.285)">
        <path id="패스_579" d="M34.394 11.109a16.466 16.466 0 0 0-23.289 0A16.469 16.469 0 1 0 34.4 34.4a16.466 16.466 0 0 0 0-23.289zm-2.132 2.132a13.452 13.452 0 0 1 1.006 17.9L14.361 12.235a13.452 13.452 0 0 1 17.901 1.006zM13.234 32.269a13.452 13.452 0 0 1-1.006-17.9l18.911 18.9a13.452 13.452 0 0 1-17.9-1.006z" class="unblock" data-name="패스 579"/>
    </g>
</svg>
