<svg xmlns="http://www.w3.org/2000/svg" width="25.812" height="25.82" viewBox="0 0 25.812 25.82">
    <defs>
        <style>
            .write{fill:#0f4c81}
        </style>
    </defs>
    <g id="noun_write_1577979" transform="translate(-9 -8)">
        <g id="그룹_15" data-name="그룹 15" transform="translate(9 8)">
            <path id="패스_568" d="M31.435 9a3.4 3.4 0 0 0-2.4.994L18 21.024a.945.945 0 0 0-.256.443l-1.161 4.615a.945.945 0 0 0 1.141 1.151l4.625-1.171a.945.945 0 0 0 .433-.246l.768-.768a.945.945 0 1 0-1.338-1.328l-.571.571-2.844.728.728-2.854 8.905-8.905 2.125 2.116-5.821 5.824a.946.946 0 1 0 1.338 1.338l7.754-7.764A3.385 3.385 0 0 0 31.435 9zm0 1.879a1.506 1.506 0 0 1 1.053 2.568l-.6.59-2.116-2.116.6-.6a1.5 1.5 0 0 1 1.063-.442zm-21.589 1.27a.945.945 0 0 0-.846.944v20.782a.945.945 0 0 0 .945.945h20.781a.945.945 0 0 0 .945-.945V22.54a.945.945 0 1 0-1.889 0v10.391H10.889V14.038H21.28a.945.945 0 1 0 0-1.889H9.945a.944.944 0 0 0-.099 0z" class="write" data-name="패스 568" transform="translate(-9 -9)"/>
        </g>
    </g>
</svg>
